<?xml version="1.0" encoding="UTF-8"?>
<svg version="1.1" xmlns="http://www.w3.org/2000/svg" width="1920" height="1080">
<path d="M0 0 C1.010625 0.350625 2.02125 0.70125 3.0625 1.0625 C6.4668979 8.24101173 7.70445067 16.09890004 9.27734375 23.83984375 C9.57694997 25.29317987 9.87697187 26.74643035 10.17738342 28.19960022 C10.80593074 31.24738276 11.42990665 34.29605473 12.05053711 37.34545898 C12.83016882 41.17464664 13.62028596 45.00157409 14.41367149 48.82793236 C18.0760064 66.51336124 21.43945754 84.18724775 24.0625 102.0625 C26.16884105 100.00796471 27.74169077 98.14393224 29.19140625 95.578125 C29.58110596 94.89814453 29.97080566 94.21816406 30.37231445 93.51757812 C30.78570068 92.78990234 31.19908691 92.06222656 31.625 91.3125 C59.49846418 43.23473141 59.49846418 43.23473141 79.609375 37.3125 C84.30229796 36.201749 87.71395969 35.45337581 92.0625 38.0625 C92.875 41.3125 92.875 41.3125 93.0625 45.0625 C88.7716964 49.40955009 84.07164923 50.37894972 78.31640625 51.83984375 C71.85790888 54.26662608 67.89818765 59.11060993 63.8125 64.4375 C63.34287842 65.04327881 62.87325684 65.64905762 62.3894043 66.27319336 C57.69427545 72.40922205 53.38181331 78.77873603 49.21044922 85.27929688 C48.13464945 86.95042437 47.03871769 88.60854327 45.94140625 90.265625 C44.24909612 92.89150972 42.64342466 95.54080787 41.10498047 98.25927734 C40.36135063 99.5455654 39.58874376 100.81528056 38.79736328 102.07275391 C33.32707764 110.70621466 33.32707764 110.70621466 32.48925781 120.56152344 C34.46115829 126.5513739 37.59804946 131.82827147 41.0625 137.0625 C41.53550537 137.82280518 42.00851074 138.58311035 42.49584961 139.36645508 C47.32696822 146.77688058 53.4085573 152.79868292 59.68676758 158.96801758 C61.5002178 160.75021405 63.30269276 162.542944 65.10351562 164.33789062 C70.3820985 169.58075059 75.68013461 174.7472561 81.3425293 179.57885742 C83.65995975 181.57786734 85.86628375 183.68373961 88.08325195 185.79272461 C103.80360133 201.53416619 103.80360133 201.53416619 123.0625 211.0625 C123.0315625 209.825 123.0315625 209.825 123 208.5625 C124.61888159 203.22971359 128.50963973 200.13935234 133.0625 197.0625 C135.84951893 196.26328134 137.48509147 195.93418699 140.3125 196.5625 C142.0625 198.0625 142.0625 198.0625 143.125 201.375 C143.0625 205.0625 143.0625 205.0625 140.91015625 207.5 C138.13915991 209.99351659 135.33229938 212.40146441 132.4375 214.75 C131.02597656 215.90048828 131.02597656 215.90048828 129.5859375 217.07421875 C125.05188736 220.64671336 122.87608234 221.63432777 117.0625 221.0625 C105.80491542 216.79238171 96.24583039 207.43760565 87.546875 199.3671875 C85.39528418 197.37121488 83.21609472 195.42357022 81 193.5 C76.30078549 189.4133104 71.6857255 185.23467911 67.0625 181.0625 C66.36455322 180.44616699 65.66660645 179.82983398 64.94750977 179.19482422 C58.53507157 173.49902114 52.39095509 167.57720193 46.32885742 161.51416016 C44.73959171 159.92710619 43.14244038 158.34827263 41.54492188 156.76953125 C36.57708052 151.82808835 31.86533471 146.9892137 28.0625 141.0625 C28.0939209 141.92693726 28.0939209 141.92693726 28.12597656 142.80883789 C28.79117031 164.16029409 26.38912469 184.28465516 18.0625 204.0625 C17.69318359 204.94357422 17.32386719 205.82464844 16.94335938 206.73242188 C10.74395513 221.32455756 4.19950857 234.04012862 -6.734375 245.69921875 C-8.13960243 247.20659924 -9.50910674 248.74866429 -10.828125 250.33203125 C-14.68602929 254.95989543 -18.8628957 258.88021061 -23.5625 262.625 C-24.10100586 263.06714844 -24.63951172 263.50929688 -25.19433594 263.96484375 C-28.86401893 266.7873311 -31.33636491 267.65833044 -35.9375 267.0625 C-38.25924895 265.54135413 -38.83506089 264.31518314 -39.875 261.75 C-39.96521611 257.87070728 -38.43157921 255.83999731 -35.9375 253.0625 C-31.00256081 248.22808735 -25.71094996 243.86474176 -20.3125 239.5625 C2.15200202 221.20543154 13.23125077 189.64963321 16.5859375 161.5625 C17.50256188 152.32499916 16.90283098 143.28523047 16.0625 134.0625 C16.00322327 133.40513855 15.94394653 132.7477771 15.88287354 132.07049561 C12.51940921 95.08090047 6.11213077 58.94143243 -3.66552734 23.07958984 C-7.86938887 7.42026574 -7.86938887 7.42026574 -6.07348633 2.87646484 C-4.33514167 0.10064261 -3.26110216 0.06938515 0 0 Z " fill="#FFA528" transform="translate(598.9375,405.9375)"/>
<path d="M0 0 C7.96763191 5.59558882 10.9962133 13.28654443 12.86328125 22.55859375 C13.76685233 28.02425098 14.2596862 33.4029642 14.421875 38.9375 C14.44910645 39.80922852 14.47633789 40.68095703 14.50439453 41.57910156 C14.95929311 58.73936373 15.18774264 77.52018222 9.421875 93.9375 C6.62317473 95.33685013 4.51688708 95.19015405 1.421875 94.9375 C-0.52356328 93.45787089 -1.43860688 92.52071087 -2.01171875 90.125 C-2.02245192 84.11442699 -0.91410008 78.63718858 0.421875 72.8125 C4.52949613 54.46047817 3.17884176 33.47135017 -3.41796875 15.765625 C-4.86315887 13.48835571 -6.06891798 12.86244399 -8.578125 11.9375 C-15.18719693 11.01222993 -20.23547228 13.21624935 -25.578125 16.9375 C-40.02645081 30.90528282 -40.76401774 59.97709061 -41.84472656 78.49780273 C-42.21598841 84.53344703 -42.621892 90.19064249 -44.578125 95.9375 C-47.578125 97.9375 -47.578125 97.9375 -50.640625 97.6875 C-53.578125 96.9375 -53.578125 96.9375 -55.578125 94.9375 C-55.83349609 92.91992188 -55.83349609 92.91992188 -55.8515625 90.40625 C-55.86928711 89.46305908 -55.88701172 88.51986816 -55.90527344 87.5480957 C-55.92895996 86.00835083 -55.92895996 86.00835083 -55.953125 84.4375 C-56.53247261 64.77999678 -58.0038039 44.0096648 -68.578125 26.9375 C-75.99539021 27.61571148 -79.50395926 31.87140129 -84.578125 36.9375 C-85.23425781 37.58203125 -85.89039063 38.2265625 -86.56640625 38.890625 C-99.77100951 52.82719075 -102.44932286 73.26317539 -105.609375 91.421875 C-106.55215453 96.83710863 -107.55883705 102.2358142 -108.640625 107.625 C-108.79088135 108.42091553 -108.9411377 109.21683105 -109.09594727 110.03686523 C-109.88762795 113.90942888 -110.4257552 116.46578224 -113.578125 118.9375 C-116.765625 119.125 -116.765625 119.125 -119.578125 118.9375 C-124.91240776 108.02646708 -124.97629317 96.14566927 -125.66769409 84.24127197 C-126.69764503 67.04381454 -128.82656921 50.76358038 -132.84814453 33.98779297 C-133.95059594 29.38109466 -134.95666139 24.75554386 -135.953125 20.125 C-136.12062256 19.39619629 -136.28812012 18.66739258 -136.46069336 17.91650391 C-138.96246943 6.54332481 -138.96246943 6.54332481 -136.515625 1.9375 C-133.45484962 0.35774496 -130.94688085 0.56999936 -127.578125 0.9375 C-125.61797426 3.87772612 -125.18843348 5.18387537 -124.6484375 8.55395508 C-124.49487793 9.48955765 -124.34131836 10.42516022 -124.18310547 11.38911438 C-123.94551514 12.90773323 -123.94551514 12.90773323 -123.703125 14.45703125 C-123.53312988 15.50718918 -123.36313477 16.55734711 -123.18798828 17.639328 C-122.64448344 21.00848721 -122.11133212 24.37919741 -121.578125 27.75 C-121.21939606 29.97861971 -120.86002809 32.20713667 -120.5 34.43554688 C-118.88646544 44.46545286 -117.29723031 54.4923878 -115.97265625 64.56518555 C-115.69623641 66.94662785 -115.69623641 66.94662785 -114.578125 68.9375 C-114.2378125 67.81214844 -113.8975 66.68679688 -113.546875 65.52734375 C-106.22739991 42.03190594 -95.1582572 25.08095046 -73.40234375 12.69921875 C-70.073991 11.30943548 -67.03300405 11.13636863 -63.578125 11.9375 C-57.15986431 15.65823084 -53.75848608 20.99264619 -51.578125 27.9375 C-50.96653756 30.34678386 -50.42661027 32.7437849 -49.97265625 35.1875 C-49.73770348 36.95601573 -49.73770348 36.95601573 -48.578125 37.9375 C-48.27519531 36.88691406 -47.97226563 35.83632813 -47.66015625 34.75390625 C-44.11094294 22.74437553 -40.38017851 11.21609077 -29.203125 4.25 C-27.83027344 3.37794922 -27.83027344 3.37794922 -26.4296875 2.48828125 C-18.66269548 -1.73568565 -8.39266562 -3.45879553 0 0 Z " fill="#FFA528" transform="translate(1345.578125,468.0625)"/>
<path d="M0 0 C2 2.3125 2 2.3125 3 5 C2.18795587 8.17435434 1.31819425 9.68180575 -1 12 C-3.80521437 12.4181686 -6.55478691 12.74702408 -9.375 13 C-16.07929854 13.31366099 -16.07929854 13.31366099 -22 16 C-24.84010833 22.72516218 -25.52339955 33.28905247 -23.28125 40.22265625 C-18.59231799 46.72711986 -4.34440278 47.68539262 3 49 C9.51974886 49.8021312 16.06218637 50.29648245 22.609375 50.81640625 C35.09982102 51.89659393 45.61589806 53.7020822 56 61 C56.61359375 61.39445313 57.2271875 61.78890625 57.859375 62.1953125 C66.04684784 68.16690966 73.27992099 81.08642635 75 91 C76.26494035 101.99948134 73.30455039 112.35936253 67.05859375 121.41015625 C53.00413651 139.0915702 29.67345152 148.47828959 7.81640625 151.5703125 C-1.42391178 152.61067584 -9.83725441 152.83444856 -18.1875 148.25 C-26.45075 141.6394 -28.54170108 134.23390304 -30 124 C-30.15994232 121.81586965 -30.2633865 119.62692796 -30.3125 117.4375 C-30.34988281 116.34308594 -30.38726563 115.24867188 -30.42578125 114.12109375 C-29.90393525 110.29581893 -28.72575149 108.68646138 -26 106 C-23 105.375 -23 105.375 -20 106 C-16.88121198 108.86928498 -15.75575652 111.11439456 -15.4609375 115.25 C-15.41345109 116.83288031 -15.38528285 118.41644094 -15.375 120 C-15.39206203 128.92854619 -15.39206203 128.92854619 -10.765625 136.28125 C-3.72910785 140.65422676 6.54293394 138.21384856 14.3125 136.5 C29.43659667 132.81455626 48.54646352 124.7539854 57 111 C60.40772434 103.88544073 62.4839987 97.39156926 60.33984375 89.6015625 C57.04024012 80.31696355 51.63370346 72.93811932 42.85424805 68.24975586 C35.58022604 65.06476581 27.16802632 64.83868737 19.32421875 64.36816406 C9.26662488 63.76483888 -0.59835001 62.6246453 -10.5 60.75 C-11.51924561 60.56977295 -12.53849121 60.3895459 -13.58862305 60.20385742 C-22.53796148 58.39587276 -30.18549558 54.1826231 -36 47 C-40.49860974 38.73130031 -39.24741407 29.88339125 -37.75 20.9375 C-37.64042969 20.18662109 -37.53085937 19.43574219 -37.41796875 18.66210938 C-36.3543374 12.18515426 -34.317938 6.44671234 -29.75 1.625 C-21.18102029 -3.43848801 -9.11283173 -3.77307789 0 0 Z " fill="#FFA628" transform="translate(945,465)"/>
<path d="M0 0 C7.40832848 5.41068711 11.83650419 11.84819312 15 20.375 C15.49910889 21.67775879 15.49910889 21.67775879 16.00830078 23.00683594 C22.07789217 39.20614287 25.26643175 54.90263719 26.328125 72.1796875 C26.44957886 74.13600098 26.44957886 74.13600098 26.57348633 76.13183594 C26.73243607 78.72600305 26.87241772 81.31904707 27.00268555 83.91503906 C27.71992545 96.6773833 27.71992545 96.6773833 30.875 109 C32.74130182 110.51613845 32.74130182 110.51613845 34.875 111 C43.75932552 108.74672903 53.12507624 100.90310828 58.640625 93.69140625 C69.69880715 73.93989415 65.89659423 45.74926157 61.30200195 24.77661133 C57.65684833 8.09209348 57.65684833 8.09209348 58.875 3 C60.99857423 0.21912898 61.69229361 0.02657547 65.3125 -0.5 C68.875 0 68.875 0 71.125 1.75 C76.47961925 11.69429289 76.94009348 24.02018267 78.24804688 35.046875 C79.89018618 47.93663795 81.99106701 64.39409949 92.875 73 C98.94315637 75.47679852 105.38473599 75.59502458 111.875 76 C112.865 74.02 112.865 74.02 113.875 72 C121.23770368 71.51719976 121.23770368 71.51719976 123.9375 73.5625 C125.3303454 77.18389805 124.97979872 79.29567489 123.875 83 C119.56373597 87.51178794 115.21418916 89.86678767 108.9375 90.1171875 C98.27247977 89.27378029 87.29835098 88.31206201 79.875 80 C79.215 79.34 78.555 78.68 77.875 78 C77.65585937 79.03898438 77.43671875 80.07796875 77.2109375 81.1484375 C75.30561995 89.70439179 73.11382997 96.8121594 67.875 104 C66.823125 105.546875 66.823125 105.546875 65.75 107.125 C57.80729757 116.02283753 44.57327058 122.42570363 32.875 124.54296875 C28.59815779 124.77844965 26.52296578 124.44116819 22.9375 122 C18.51277156 115.56403136 17.31352733 108.84429806 16.4375 101.25 C16.25537964 99.80113403 16.25537964 99.80113403 16.06958008 98.32299805 C15.28643951 91.95440282 14.62952899 85.57720819 14.0078125 79.19140625 C12.40216361 62.93039655 10.83640732 47.35750812 4.875 32 C4.62459961 31.32340332 4.37419922 30.64680664 4.11621094 29.94970703 C0.44694907 19.02823058 0.44694907 19.02823058 -7.125 11 C-9.82989872 10.90983671 -12.12244395 11.22059456 -14.7578125 11.828125 C-17.125 12 -17.125 12 -19.3984375 10.73046875 C-21.125 9 -21.125 9 -21.625 6.0625 C-21.0179997 2.34462319 -20.10825239 1.23743929 -17.125 -1 C-11.27396809 -2.81625782 -5.40549484 -3.13392502 0 0 Z " fill="#FFA628" transform="translate(758.125,494)"/>
<path d="M0 0 C3.6467433 3.3963043 3.6819272 7.5823759 4.0625 12.28125 C4.13992432 13.09057983 4.21734863 13.89990967 4.29711914 14.73376465 C4.5436455 17.32154513 4.77335046 19.9104084 5 22.5 C7.03127234 45.32804364 11.02614632 71.84113195 28.765625 88.30859375 C33.84249536 92.15174911 39.77184573 95.1203007 46.1875 95.6875 C52.70532722 94.51215411 56.16864776 91.4775086 60.0703125 86.19921875 C72.77402569 66.41910259 78.50215648 46.37221411 74.07910156 23.23583984 C71.25478694 8.12609851 71.25478694 8.12609851 75 2 C77.28892049 0.34250585 78.60934374 0 81.4375 0 C85.13609937 1.44335585 86.71394588 3.82492483 89 7 C90.05642358 10.16927074 90.00967424 12.02399098 89.81640625 15.328125 C89.02223493 34.66434653 92.36252316 50.61146134 98 69 C98.2980957 70.01094727 98.59619141 71.02189453 98.90332031 72.06347656 C99.66222721 74.63367726 100.44523138 77.19383301 101.25 79.75 C101.47123535 80.46430176 101.6924707 81.17860352 101.92041016 81.91455078 C103.23288824 85.7954715 104.31558265 88.09426689 108 90 C115.22998289 92.73490191 122.89993768 92.69268014 130.546875 93.12304688 C131.5884375 93.19458984 132.63 93.26613281 133.703125 93.33984375 C134.64833008 93.39519287 135.59353516 93.45054199 136.56738281 93.50756836 C139.38236872 94.07740242 140.34366874 94.67741794 142 97 C142.4375 100.5 142.4375 100.5 142 104 C139.87062488 106.13428151 138.50647301 106.92605653 135.51171875 107.36328125 C105.39906519 106.82183658 105.39906519 106.82183658 95.96484375 97.1640625 C91.79033548 92.0272947 90.11922182 85.77918127 88.125 79.5625 C87.52171875 77.74975586 87.52171875 77.74975586 86.90625 75.90039062 C85.92272555 72.93810866 84.95454668 69.97171997 84 67 C83.63648438 67.95519531 83.27296875 68.91039062 82.8984375 69.89453125 C77.3281358 84.32633578 71.09505043 99.93976366 56.375 107.1875 C46.96835611 110.7872492 39.10461979 108.8007493 30 105 C11.87973867 94.76016482 3.15045987 74.95835435 -2.30761719 55.70068359 C-6.10967802 40.87050134 -9.06173415 25.46866716 -9.25 10.125 C-9.27578125 8.84882813 -9.3015625 7.57265625 -9.328125 6.2578125 C-9 3 -9 3 -7.671875 1.08203125 C-5.02061558 -0.63385394 -3.06640179 -0.44718359 0 0 Z " fill="#FFA528" transform="translate(1050,475)"/>
</svg>
